{
  "asset": {
    "version": "2.0",
    "generator": "THREE.GLTFExporter"
  },
  "scenes": [
    {
      "name": "AuxScene",
      "nodes": [
        20
      ]
    }
  ],
  "scene": 0,
  "nodes": [
    {
      "translation": [
        -16.022902011871338,
        0,
        0
      ],
      "name": "Mesh_4",
      "mesh": 0
    },
    {
      "translation": [
        0,
        7.035799980163574,
        0.020139694213867188
      ],
      "name": "Mesh_5",
      "mesh": 1
    },
    {
      "name": "NAUO1",
      "children": [
        0,
        1
      ]
    },
    {
      "translation": [
        0,
        -0.18386220932006836,
        0
      ],
      "name": "NAUO2",
      "mesh": 2
    },
    {
      "name": "NAUO2",
      "children": [
        3
      ]
    },
    {
      "translation": [
        0,
        29.13379955291748,
        0
      ],
      "name": "NAUO3",
      "mesh": 3
    },
    {
      "name": "NAUO3",
      "children": [
        5
      ]
    },
    {
      "translation": [
        0,
        29.14151668548584,
        0
      ],
      "name": "NAUO4",
      "mesh": 4
    },
    {
      "name": "NAUO4",
      "children": [
        7
      ]
    },
    {
      "translation": [
        53.69559955596924,
        45.23740005493164,
        0
      ],
      "name": "Ball Valve Handle",
      "mesh": 5
    },
    {
      "translation": [
        84.6564826965332,
        61.595001220703125,
        0
      ],
      "name": "Ball Valve Handle Cover",
      "mesh": 6
    },
    {
      "translation": [
        17.975493907928467,
        40.248003005981445,
        0
      ],
      "name": "Ball Valve Handle Locker",
      "mesh": 7
    },
    {
      "name": "NAUO5",
      "children": [
        9,
        10,
        11
      ]
    },
    {
      "translation": [
        -0.021318912506103516,
        42.468801498413086,
        0
      ],
      "name": "NAUO6",
      "mesh": 8
    },
    {
      "name": "NAUO6",
      "children": [
        13
      ]
    },
    {
      "translation": [
        0,
        45.389801025390625,
        0
      ],
      "name": "NAUO7",
      "mesh": 9
    },
    {
      "name": "NAUO7",
      "children": [
        15
      ]
    },
    {
      "translation": [
        0,
        20.56130027770996,
        0
      ],
      "name": "NAUO8",
      "mesh": 10
    },
    {
      "name": "NAUO8",
      "children": [
        17
      ]
    },
    {
      "name": "Ball Valve",
      "children": [
        2,
        4,
        6,
        8,
        12,
        14,
        16,
        18
      ]
    },
    {
      "name": "Object3D_1",
      "children": [
        19
      ]
    }
  ],
  "bufferViews": [
    {
      "buffer": 0,
      "byteOffset": 0,
      "byteLength": 5472,
      "target": 34962,
      "byteStride": 12
    },
    {
      "buffer": 0,
      "byteOffset": 5472,
      "byteLength": 5472,
      "target": 34962,
      "byteStride": 12
    },
    {
      "buffer": 0,
      "byteOffset": 10944,
      "byteLength": 7344,
      "target": 34963
    },
    {
      "buffer": 0,
      "byteOffset": 18288,
      "byteLength": 165672,
      "target": 34962,
      "byteStride": 12
    },
    {
      "buffer": 0,
      "byteOffset": 183960,
      "byteLength": 165672,
      "target": 34962,
      "byteStride": 12
    },
    {
      "buffer": 0,
      "byteOffset": 349632,
      "byteLength": 194280,
      "target": 34963
    },
    {
      "buffer": 0,
      "byteOffset": 543912,
      "byteLength": 11952,
      "target": 34962,
      "byteStride": 12
    },
    {
      "buffer": 0,
      "byteOffset": 555864,
      "byteLength": 11952,
      "target": 34962,
      "byteStride": 12
    },
    {
      "buffer": 0,
      "byteOffset": 567816,
      "byteLength": 19080,
      "target": 34963
    },
    {
      "buffer": 0,
      "byteOffset": 586896,
      "byteLength": 17472,
      "target": 34962,
      "byteStride": 12
    },
    {
      "buffer": 0,
      "byteOffset": 604368,
      "byteLength": 17472,
      "target": 34962,
      "byteStride": 12
    },
    {
      "buffer": 0,
      "byteOffset": 621840,
      "byteLength": 16128,
      "target": 34963
    },
    {
      "buffer": 0,
      "byteOffset": 637968,
      "byteLength": 23904,
      "target": 34962,
      "byteStride": 12
    },
    {
      "buffer": 0,
      "byteOffset": 661872,
      "byteLength": 23904,
      "target": 34962,
      "byteStride": 12
    },
    {
      "buffer": 0,
      "byteOffset": 685776,
      "byteLength": 20736,
      "target": 34963
    },
    {
      "buffer": 0,
      "byteOffset": 706512,
      "byteLength": 12672,
      "target": 34962,
      "byteStride": 12
    },
    {
      "buffer": 0,
      "byteOffset": 719184,
      "byteLength": 12672,
      "target": 34962,
      "byteStride": 12
    },
    {
      "buffer": 0,
      "byteOffset": 731856,
      "byteLength": 10272,
      "target": 34963
    },
    {
      "buffer": 0,
      "byteOffset": 742128,
      "byteLength": 37716,
      "target": 34962,
      "byteStride": 12
    },
    {
      "buffer": 0,
      "byteOffset": 779844,
      "byteLength": 37716,
      "target": 34962,
      "byteStride": 12
    },
    {
      "buffer": 0,
      "byteOffset": 817560,
      "byteLength": 39672,
      "target": 34963
    },
    {
      "buffer": 0,
      "byteOffset": 857232,
      "byteLength": 21048,
      "target": 34962,
      "byteStride": 12
    },
    {
      "buffer": 0,
      "byteOffset": 878280,
      "byteLength": 21048,
      "target": 34962,
      "byteStride": 12
    },
    {
      "buffer": 0,
      "byteOffset": 899328,
      "byteLength": 17736,
      "target": 34963
    },
    {
      "buffer": 0,
      "byteOffset": 917064,
      "byteLength": 15072,
      "target": 34962,
      "byteStride": 12
    },
    {
      "buffer": 0,
      "byteOffset": 932136,
      "byteLength": 15072,
      "target": 34962,
      "byteStride": 12
    },
    {
      "buffer": 0,
      "byteOffset": 947208,
      "byteLength": 21456,
      "target": 34963
    },
    {
      "buffer": 0,
      "byteOffset": 968664,
      "byteLength": 5952,
      "target": 34962,
      "byteStride": 12
    },
    {
      "buffer": 0,
      "byteOffset": 974616,
      "byteLength": 5952,
      "target": 34962,
      "byteStride": 12
    },
    {
      "buffer": 0,
      "byteOffset": 980568,
      "byteLength": 5376,
      "target": 34963
    },
    {
      "buffer": 0,
      "byteOffset": 985944,
      "byteLength": 2592,
      "target": 34962,
      "byteStride": 12
    },
    {
      "buffer": 0,
      "byteOffset": 988536,
      "byteLength": 2592,
      "target": 34962,
      "byteStride": 12
    },
    {
      "buffer": 0,
      "byteOffset": 991128,
      "byteLength": 2496,
      "target": 34963
    }
  ],
  "buffers": [
    {
      "byteLength": 993624,
      "uri": "data:application/octet-stream;base64,"
    }
  ],
  "accessors": [
    {
      "bufferView": 0,
      "componentType": 5126,
      "count": 456,
      "max": [
        0.5205473899841309,
        17.76465606689453,
        17.76465606689453
      ],
      "min": [
        -0.5205473899841309,
        -17.76465606689453,
        -17.76465606689453
      ],
      "type": "VEC3"
    },
    {
      "bufferView": 1,
      "componentType": 5126,
      "count": 456,
      "max": [
        0.8532121181488037,
        0.9974284172058105,
        0.9995123744010925
      ],
      "min": [
        -0.886186420917511,
        -0.9974284172058105,
        -0.9998624920845032
      ],
      "type": "VEC3"
    },
    {
      "bufferView": 2,
      "componentType": 5125,
      "count": 1836,
      "max": [
        455
      ],
      "min": [
        0
      ],
      "type": "SCALAR"
    },
    {
      "bufferView": 3,
      "componentType": 5126,
      "count": 13806,
      "max": [
        31.75,
        24.71419906616211,
        19.791860580444336
      ],
      "min": [
        -31.75,
        -24.71419906616211,
        -19.791860580444336
      ],
      "type": "VEC3"
    },
    {
      "bufferView": 4,
      "componentType": 5126,
      "count": 13806,
      "max": [
        1,
        1,
        1
      ],
      "min": [
        -1,
        -1,
        -1
      ],
      "type": "VEC3"
    },
    {
      "bufferView": 5,
      "componentType": 5125,
      "count": 48570,
      "max": [
        13805
      ],
      "min": [
        0
      ],
      "type": "SCALAR"
    },
    {
      "bufferView": 6,
      "componentType": 5126,
      "count": 996,
      "max": [
        11.63062858581543,
        13.706762313842773,
        13.890625
      ],
      "min": [
        -11.63062858581543,
        -13.706762313842773,
        -13.890625
      ],
      "type": "VEC3"
    },
    {
      "bufferView": 7,
      "componentType": 5126,
      "count": 996,
      "max": [
        0.9999999403953552,
        1,
        1
      ],
      "min": [
        -0.9999999403953552,
        -0.9999909996986389,
        -1
      ],
      "type": "VEC3"
    },
    {
      "bufferView": 8,
      "componentType": 5125,
      "count": 4770,
      "max": [
        995
      ],
      "min": [
        0
      ],
      "type": "SCALAR"
    },
    {
      "bufferView": 9,
      "componentType": 5126,
      "count": 1456,
      "max": [
        7.048500061035156,
        7.289799690246582,
        7.797800064086914
      ],
      "min": [
        -7.048500061035156,
        -7.289799690246582,
        -7.797800064086914
      ],
      "type": "VEC3"
    },
    {
      "bufferView": 10,
      "componentType": 5126,
      "count": 1456,
      "max": [
        1,
        1,
        0.9967713952064514
      ],
      "min": [
        -1,
        -1,
        -0.9967713952064514
      ],
      "type": "VEC3"
    },
    {
      "bufferView": 11,
      "componentType": 5125,
      "count": 4032,
      "max": [
        1455
      ],
      "min": [
        0
      ],
      "type": "SCALAR"
    },
    {
      "bufferView": 12,
      "componentType": 5126,
      "count": 1992,
      "max": [
        6.064242839813232,
        21.531482696533203,
        6.020028114318848
      ],
      "min": [
        -6.064242839813232,
        -21.531482696533203,
        -6.020028114318848
      ],
      "type": "VEC3"
    },
    {
      "bufferView": 13,
      "componentType": 5126,
      "count": 1992,
      "max": [
        0.9991557002067566,
        1,
        1
      ],
      "min": [
        -0.9976488947868347,
        -1,
        -1
      ],
      "type": "VEC3"
    },
    {
      "bufferView": 14,
      "componentType": 5125,
      "count": 5184,
      "max": [
        1991
      ],
      "min": [
        0
      ],
      "type": "SCALAR"
    },
    {
      "bufferView": 15,
      "componentType": 5126,
      "count": 1056,
      "max": [
        67.2083969116211,
        17.60219955444336,
        7.962900161743164
      ],
      "min": [
        -67.2083969116211,
        -17.60219955444336,
        -7.962900161743164
      ],
      "type": "VEC3"
    },
    {
      "bufferView": 16,
      "componentType": 5126,
      "count": 1056,
      "max": [
        1,
        1,
        1
      ],
      "min": [
        -1,
        -1,
        -1
      ],
      "type": "VEC3"
    },
    {
      "bufferView": 17,
      "componentType": 5125,
      "count": 2568,
      "max": [
        1055
      ],
      "min": [
        0
      ],
      "type": "SCALAR"
    },
    {
      "bufferView": 18,
      "componentType": 5126,
      "count": 3143,
      "max": [
        39.168514251708984,
        2.9337005615234375,
        9.715499877929688
      ],
      "min": [
        -39.168514251708984,
        -2.9337005615234375,
        -9.715499877929688
      ],
      "type": "VEC3"
    },
    {
      "bufferView": 19,
      "componentType": 5126,
      "count": 3143,
      "max": [
        1,
        1,
        1
      ],
      "min": [
        -1,
        -1,
        -1
      ],
      "type": "VEC3"
    },
    {
      "bufferView": 20,
      "componentType": 5125,
      "count": 9918,
      "max": [
        3142
      ],
      "min": [
        0
      ],
      "type": "SCALAR"
    },
    {
      "bufferView": 21,
      "componentType": 5126,
      "count": 1754,
      "max": [
        6.435905933380127,
        10.690103530883789,
        10.32509994506836
      ],
      "min": [
        -6.435905933380127,
        -10.690103530883789,
        -10.32509994506836
      ],
      "type": "VEC3"
    },
    {
      "bufferView": 22,
      "componentType": 5126,
      "count": 1754,
      "max": [
        0.9985864162445068,
        0.9985864162445068,
        1
      ],
      "min": [
        -0.9985864162445068,
        -0.9985864162445068,
        -1
      ],
      "type": "VEC3"
    },
    {
      "bufferView": 23,
      "componentType": 5125,
      "count": 4434,
      "max": [
        1753
      ],
      "min": [
        0
      ],
      "type": "SCALAR"
    },
    {
      "bufferView": 24,
      "componentType": 5126,
      "count": 1256,
      "max": [
        6.009835243225098,
        0.8635997772216797,
        6.03249979019165
      ],
      "min": [
        -6.009835243225098,
        -0.8635997772216797,
        -6.03249979019165
      ],
      "type": "VEC3"
    },
    {
      "bufferView": 25,
      "componentType": 5126,
      "count": 1256,
      "max": [
        0.9967713952064514,
        1,
        1
      ],
      "min": [
        -0.9967713952064514,
        -1,
        -1
      ],
      "type": "VEC3"
    },
    {
      "bufferView": 26,
      "componentType": 5125,
      "count": 5364,
      "max": [
        1255
      ],
      "min": [
        0
      ],
      "type": "SCALAR"
    },
    {
      "bufferView": 27,
      "componentType": 5126,
      "count": 496,
      "max": [
        6.273799896240234,
        2.0573997497558594,
        7.244360446929932
      ],
      "min": [
        -6.273799896240234,
        -2.0573997497558594,
        -7.244360446929932
      ],
      "type": "VEC3"
    },
    {
      "bufferView": 28,
      "componentType": 5126,
      "count": 496,
      "max": [
        1,
        1,
        0.9967713952064514
      ],
      "min": [
        -1,
        -1,
        -0.9967713952064514
      ],
      "type": "VEC3"
    },
    {
      "bufferView": 29,
      "componentType": 5125,
      "count": 1344,
      "max": [
        495
      ],
      "min": [
        0
      ],
      "type": "SCALAR"
    },
    {
      "bufferView": 30,
      "componentType": 5126,
      "count": 216,
      "max": [
        6.303701400756836,
        1.2700004577636719,
        6.349999904632568
      ],
      "min": [
        -6.303701400756836,
        -1.2700004577636719,
        -6.349999904632568
      ],
      "type": "VEC3"
    },
    {
      "bufferView": 31,
      "componentType": 5126,
      "count": 216,
      "max": [
        0.9967713952064514,
        1,
        0.9927088618278503
      ],
      "min": [
        -0.9967713952064514,
        -1,
        -0.9927088618278503
      ],
      "type": "VEC3"
    },
    {
      "bufferView": 32,
      "componentType": 5125,
      "count": 624,
      "max": [
        215
      ],
      "min": [
        0
      ],
      "type": "SCALAR"
    }
  ],
  "materials": [
    {
      "pbrMetallicRoughness": {
        "baseColorFactor": [
          0.8235294117647058,
          0.6980392156862745,
          0.0784313725490196,
          1
        ],
        "metallicFactor": 0.3,
        "roughnessFactor": 0.6
      }
    },
    {
      "pbrMetallicRoughness": {
        "baseColorFactor": [
          0.8156862745098039,
          0.8,
          0.3254901960784314,
          1
        ],
        "metallicFactor": 0.3,
        "roughnessFactor": 0.6
      }
    },
    {
      "pbrMetallicRoughness": {
        "baseColorFactor": [
          0.4117647058823529,
          0.4117647058823529,
          0.4117647058823529,
          1
        ],
        "metallicFactor": 0.3,
        "roughnessFactor": 0.6
      }
    },
    {
      "pbrMetallicRoughness": {
        "metallicFactor": 0.3,
        "roughnessFactor": "0.72"
      }
    },
    {
      "pbrMetallicRoughness": {
        "baseColorFactor": [
          0.5019607843137255,
          0.5019607843137255,
          0.5019607843137255,
          1
        ],
        "metallicFactor": "0.6",
        "roughnessFactor": 0.6
      }
    },
    {
      "pbrMetallicRoughness": {
        "metallicFactor": 0.3,
        "roughnessFactor": 0.6
      }
    },
    {
      "pbrMetallicRoughness": {
        "baseColorFactor": [
          0.8705882352941177,
          0.24705882352941178,
          0.24705882352941178,
          1
        ],
        "metallicFactor": "0.61",
        "roughnessFactor": "0.48"
      }
    },
    {
      "pbrMetallicRoughness": {
        "baseColorFactor": [
          0.788235294117647,
          0.788235294117647,
          0.788235294117647,
          1
        ],
        "metallicFactor": 0.3,
        "roughnessFactor": "0.69"
      }
    },
    {
      "pbrMetallicRoughness": {
        "metallicFactor": 0.3,
        "roughnessFactor": 0.6
      }
    },
    {
      "pbrMetallicRoughness": {
        "metallicFactor": 0.3,
        "roughnessFactor": "0.24"
      }
    },
    {
      "pbrMetallicRoughness": {
        "metallicFactor": 0.3,
        "roughnessFactor": 0.6
      }
    }
  ],
  "meshes": [
    {
      "primitives": [
        {
          "mode": 4,
          "attributes": {
            "POSITION": 0,
            "NORMAL": 1
          },
          "indices": 2,
          "material": 0
        }
      ]
    },
    {
      "primitives": [
        {
          "mode": 4,
          "attributes": {
            "POSITION": 3,
            "NORMAL": 4
          },
          "indices": 5,
          "material": 1
        }
      ]
    },
    {
      "primitives": [
        {
          "mode": 4,
          "attributes": {
            "POSITION": 6,
            "NORMAL": 7
          },
          "indices": 8,
          "material": 2
        }
      ]
    },
    {
      "primitives": [
        {
          "mode": 4,
          "attributes": {
            "POSITION": 9,
            "NORMAL": 10
          },
          "indices": 11,
          "material": 3
        }
      ]
    },
    {
      "primitives": [
        {
          "mode": 4,
          "attributes": {
            "POSITION": 12,
            "NORMAL": 13
          },
          "indices": 14,
          "material": 4
        }
      ]
    },
    {
      "primitives": [
        {
          "mode": 4,
          "attributes": {
            "POSITION": 15,
            "NORMAL": 16
          },
          "indices": 17,
          "material": 5
        }
      ]
    },
    {
      "primitives": [
        {
          "mode": 4,
          "attributes": {
            "POSITION": 18,
            "NORMAL": 19
          },
          "indices": 20,
          "material": 6
        }
      ]
    },
    {
      "primitives": [
        {
          "mode": 4,
          "attributes": {
            "POSITION": 21,
            "NORMAL": 22
          },
          "indices": 23,
          "material": 7
        }
      ]
    },
    {
      "primitives": [
        {
          "mode": 4,
          "attributes": {
            "POSITION": 24,
            "NORMAL": 25
          },
          "indices": 26,
          "material": 8
        }
      ]
    },
    {
      "primitives": [
        {
          "mode": 4,
          "attributes": {
            "POSITION": 27,
            "NORMAL": 28
          },
          "indices": 29,
          "material": 9
        }
      ]
    },
    {
      "primitives": [
        {
          "mode": 4,
          "attributes": {
            "POSITION": 30,
            "NORMAL": 31
          },
          "indices": 32,
          "material": 10
        }
      ]
    }
  ]
}