{
  "asset": {
    "version": "2.0",
    "generator": "THREE.GLTFExporter"
  },
  "scenes": [
    {
      "name": "AuxScene",
      "nodes": [
        9
      ]
    }
  ],
  "scene": 0,
  "nodes": [
    {
      "translation": [
        0,
        37.8562273979187,
        -13.851438522338867
      ],
      "name": "SertCaseLeg_v04stepSTEP",
      "extras": {
        "name": "SertCaseLeg_v04.step.STEP"
      },
      "mesh": 0
    },
    {
      "translation": [
        0,
        25.09693479537964,
        -13.851438999176025
      ],
      "name": "SerCaseHol_v04stepSTEP",
      "extras": {
        "name": "SerCaseHol_v04.step.STEP"
      },
      "mesh": 1
    },
    {
      "name": "Serter_2STEP_1",
      "extras": {
        "name": "Serter_2.STEP_1"
      },
      "children": [
        0,
        1
      ]
    },
    {
      "translation": [
        -0.005354881286621094,
        23.41256332397461,
        -13.797569274902344
      ],
      "name": "Mesh_4",
      "extras": {
        "name": "Mesh_4"
      },
      "mesh": 2
    },
    {
      "translation": [
        0.004460334777832031,
        50.03228950500488,
        -2.6684741973876953
      ],
      "name": "Mesh_5",
      "extras": {
        "name": "Mesh_5"
      },
      "mesh": 3
    },
    {
      "translation": [
        -0.0007600784301757812,
        50.03229331970215,
        -52.351439476013184
      ],
      "name": "Mesh_6",
      "extras": {
        "name": "Mesh_6"
      },
      "mesh": 4
    },
    {
      "name": "Case(упрощенный)1",
      "extras": {
        "name": "Case(упрощенный):1"
      },
      "children": [
        3,
        4,
        5
      ]
    },
    {
      "name": "Serter_2",
      "extras": {
        "name": "Serter_2"
      },
      "children": [
        2,
        6
      ]
    },
    {
      "name": "Object3D_1",
      "extras": {
        "name": "Object3D_1"
      },
      "children": [
        7
      ]
    },
    {
      "name": "Model",
      "extras": {
        "name": "Model"
      },
      "children": [
        8
      ]
    }
  ],
  "bufferViews": [
    {
      "buffer": 0,
      "byteOffset": 0,
      "byteLength": 60336,
      "target": 34962,
      "byteStride": 12
    },
    {
      "buffer": 0,
      "byteOffset": 60336,
      "byteLength": 60336,
      "target": 34962,
      "byteStride": 12
    },
    {
      "buffer": 0,
      "byteOffset": 120672,
      "byteLength": 64896,
      "target": 34963
    },
    {
      "buffer": 0,
      "byteOffset": 185568,
      "byteLength": 161160,
      "target": 34962,
      "byteStride": 12
    },
    {
      "buffer": 0,
      "byteOffset": 346728,
      "byteLength": 161160,
      "target": 34962,
      "byteStride": 12
    },
    {
      "buffer": 0,
      "byteOffset": 507888,
      "byteLength": 208656,
      "target": 34963
    },
    {
      "buffer": 0,
      "byteOffset": 716544,
      "byteLength": 45720,
      "target": 34962,
      "byteStride": 12
    },
    {
      "buffer": 0,
      "byteOffset": 762264,
      "byteLength": 45720,
      "target": 34962,
      "byteStride": 12
    },
    {
      "buffer": 0,
      "byteOffset": 807984,
      "byteLength": 53544,
      "target": 34963
    },
    {
      "buffer": 0,
      "byteOffset": 861528,
      "byteLength": 88080,
      "target": 34962,
      "byteStride": 12
    },
    {
      "buffer": 0,
      "byteOffset": 949608,
      "byteLength": 88080,
      "target": 34962,
      "byteStride": 12
    },
    {
      "buffer": 0,
      "byteOffset": 1037688,
      "byteLength": 134544,
      "target": 34963
    },
    {
      "buffer": 0,
      "byteOffset": 1172232,
      "byteLength": 101172,
      "target": 34962,
      "byteStride": 12
    },
    {
      "buffer": 0,
      "byteOffset": 1273404,
      "byteLength": 101172,
      "target": 34962,
      "byteStride": 12
    },
    {
      "buffer": 0,
      "byteOffset": 1374576,
      "byteLength": 175368,
      "target": 34963
    }
  ],
  "buffers": [
    {
      "byteLength": 1549944,
      "uri": "data:application/octet-stream;base64,"
    }
  ],
  "accessors": [
    {
      "bufferView": 0,
      "componentType": 5126,
      "count": 5028,
      "max": [
        21.5,
        24.25,
        27.247968673706055
      ],
      "min": [
        -21.5,
        -24.25,
        -27.247968673706055
      ],
      "type": "VEC3"
    },
    {
      "bufferView": 1,
      "componentType": 5126,
      "count": 5028,
      "max": [
        1,
        1,
        1
      ],
      "min": [
        -1,
        -1,
        -1
      ],
      "type": "VEC3"
    },
    {
      "bufferView": 2,
      "componentType": 5125,
      "count": 16224,
      "max": [
        5027
      ],
      "min": [
        0
      ],
      "type": "SCALAR"
    },
    {
      "bufferView": 3,
      "componentType": 5126,
      "count": 13430,
      "max": [
        21.574535369873047,
        13.474998474121094,
        28.25145149230957
      ],
      "min": [
        -21.574535369873047,
        -13.474998474121094,
        -28.25145149230957
      ],
      "type": "VEC3"
    },
    {
      "bufferView": 4,
      "componentType": 5126,
      "count": 13430,
      "max": [
        1,
        1,
        1
      ],
      "min": [
        -1,
        -1,
        -1
      ],
      "type": "VEC3"
    },
    {
      "bufferView": 5,
      "componentType": 5125,
      "count": 52164,
      "max": [
        13429
      ],
      "min": [
        0
      ],
      "type": "SCALAR"
    },
    {
      "bufferView": 6,
      "componentType": 5126,
      "count": 3810,
      "max": [
        27.119434356689453,
        9,
        33.50914001464844
      ],
      "min": [
        -27.119434356689453,
        -9,
        -33.50914001464844
      ],
      "type": "VEC3"
    },
    {
      "bufferView": 7,
      "componentType": 5126,
      "count": 3810,
      "max": [
        1,
        1,
        1
      ],
      "min": [
        -1,
        -1,
        -1
      ],
      "type": "VEC3"
    },
    {
      "bufferView": 8,
      "componentType": 5125,
      "count": 13386,
      "max": [
        3809
      ],
      "min": [
        0
      ],
      "type": "SCALAR"
    },
    {
      "bufferView": 9,
      "componentType": 5126,
      "count": 7340,
      "max": [
        29.56756591796875,
        30.440969467163086,
        26.682964324951172
      ],
      "min": [
        -29.56756591796875,
        -30.440969467163086,
        -26.682964324951172
      ],
      "type": "VEC3"
    },
    {
      "bufferView": 10,
      "componentType": 5126,
      "count": 7340,
      "max": [
        1,
        1,
        1
      ],
      "min": [
        -1,
        -1,
        -1
      ],
      "type": "VEC3"
    },
    {
      "bufferView": 11,
      "componentType": 5125,
      "count": 33636,
      "max": [
        7339
      ],
      "min": [
        0
      ],
      "type": "SCALAR"
    },
    {
      "bufferView": 12,
      "componentType": 5126,
      "count": 8431,
      "max": [
        28.30376434326172,
        30.44096565246582,
        27
      ],
      "min": [
        -28.30376434326172,
        -30.44096565246582,
        -27
      ],
      "type": "VEC3"
    },
    {
      "bufferView": 13,
      "componentType": 5126,
      "count": 8431,
      "max": [
        1,
        1,
        1
      ],
      "min": [
        -1,
        -1,
        -1
      ],
      "type": "VEC3"
    },
    {
      "bufferView": 14,
      "componentType": 5125,
      "count": 43842,
      "max": [
        8430
      ],
      "min": [
        0
      ],
      "type": "SCALAR"
    }
  ],
  "materials": [
    {
      "pbrMetallicRoughness": {
        "baseColorFactor": [
          0.5882352941176471,
          0.5882352941176471,
          0.5882352941176471,
          1
        ],
        "metallicFactor": "0.3",
        "roughnessFactor": "0.11"
      }
    },
    {
      "pbrMetallicRoughness": {
        "baseColorFactor": [
          0.5882352941176471,
          0.5882352941176471,
          0.5882352941176471,
          1
        ],
        "metallicFactor": "0.3",
        "roughnessFactor": "0.11"
      }
    },
    {
      "pbrMetallicRoughness": {
        "baseColorFactor": [
          0.10196078431372549,
          1,
          0.44313725490196076,
          1
        ],
        "metallicFactor": "0",
        "roughnessFactor": "1"
      }
    },
    {
      "pbrMetallicRoughness": {
        "baseColorFactor": [
          0.8,
          0.9686274509803922,
          1,
          1
        ],
        "metallicFactor": "0.2",
        "roughnessFactor": "0.17"
      }
    },
    {
      "pbrMetallicRoughness": {
        "baseColorFactor": [
          0.8,
          0.9686274509803922,
          1,
          1
        ],
        "metallicFactor": "0.2",
        "roughnessFactor": "0.17"
      }
    }
  ],
  "meshes": [
    {
      "primitives": [
        {
          "mode": 4,
          "attributes": {
            "POSITION": 0,
            "NORMAL": 1
          },
          "indices": 2,
          "material": 0
        }
      ]
    },
    {
      "primitives": [
        {
          "mode": 4,
          "attributes": {
            "POSITION": 3,
            "NORMAL": 4
          },
          "indices": 5,
          "material": 1
        }
      ]
    },
    {
      "primitives": [
        {
          "mode": 4,
          "attributes": {
            "POSITION": 6,
            "NORMAL": 7
          },
          "indices": 8,
          "material": 2
        }
      ]
    },
    {
      "primitives": [
        {
          "mode": 4,
          "attributes": {
            "POSITION": 9,
            "NORMAL": 10
          },
          "indices": 11,
          "material": 3
        }
      ]
    },
    {
      "primitives": [
        {
          "mode": 4,
          "attributes": {
            "POSITION": 12,
            "NORMAL": 13
          },
          "indices": 14,
          "material": 4
        }
      ]
    }
  ]
}