{"accessors":[{"bufferView":0,"componentType":5126,"count":2193,"max":[21.5,23.5,22.711755752563477],"min":[-21.5,-25.0,-31.711755752563477],"type":"VEC3"},{"bufferView":1,"componentType":5126,"count":2193,"max":[1.0,1.0,1.0],"min":[-1.0,-1.0,-1.0],"type":"VEC3"},{"bufferView":2,"componentType":5126,"count":2193,"type":"VEC3"},{"bufferView":3,"componentType":5125,"count":6036,"type":"SCALAR"},{"bufferView":4,"componentType":5126,"count":4109,"max":[21.574535369873047,21.950000762939453,19.770763397216797],"min":[-21.574535369873047,-5.0,-36.7707633972168],"type":"VEC3"},{"bufferView":5,"componentType":5126,"count":4109,"max":[1.0,1.0,1.0],"min":[-1.0,-1.0,-1.0],"type":"VEC3"},{"bufferView":6,"componentType":5126,"count":4109,"type":"VEC3"},{"bufferView":7,"componentType":5125,"count":12990,"type":"SCALAR"},{"bufferView":8,"componentType":5126,"count":1846,"max":[27.125865936279297,29.06300926208496,5.0],"min":[-27.12521743774414,-37.926719665527344,-13.0],"type":"VEC3"},{"bufferView":9,"componentType":5126,"count":1846,"max":[1.0,1.0,1.0],"min":[-1.0,-1.0,-1.0],"type":"VEC3"},{"bufferView":10,"componentType":5126,"count":1846,"type":"VEC3"},{"bufferView":11,"componentType":5125,"count":6222,"type":"SCALAR"},{"bufferView":12,"componentType":5126,"count":3978,"max":[29.565481185913086,33.35559844970703,53.08408737182617],"min":[-29.53699493408203,-20.0036563873291,-7.821236610412598],"type":"VEC3"},{"bufferView":13,"componentType":5126,"count":3978,"max":[1.0,1.0,1.0],"min":[-1.0,-1.0,-1.0],"type":"VEC3"},{"bufferView":14,"componentType":5126,"count":3978,"type":"VEC3"},{"bufferView":15,"componentType":5125,"count":16908,"type":"SCALAR"},{"bufferView":16,"componentType":5126,"count":2918,"max":[28.30138397216797,-16.0,53.06069564819336],"min":[-28.286954879760742,-70.0,-7.8212456703186035],"type":"VEC3"},{"bufferView":17,"componentType":5126,"count":2918,"max":[1.0,1.0,1.0],"min":[-1.0,-1.0,-1.0],"type":"VEC3"},{"bufferView":18,"componentType":5126,"count":2918,"type":"VEC3"},{"bufferView":19,"componentType":5125,"count":14136,"type":"SCALAR"}],"asset":{"generator":"MPU-Cloud Converter 2021","version":"2.0"},"bufferViews":[{"buffer":0,"byteLength":26316,"byteOffset":0},{"buffer":0,"byteLength":26316,"byteOffset":26316},{"buffer":0,"byteLength":26316,"byteOffset":52632},{"buffer":0,"byteLength":24144,"byteOffset":78948},{"buffer":0,"byteLength":49308,"byteOffset":103092},{"buffer":0,"byteLength":49308,"byteOffset":152400},{"buffer":0,"byteLength":49308,"byteOffset":201708},{"buffer":0,"byteLength":51960,"byteOffset":251016},{"buffer":0,"byteLength":22152,"byteOffset":302976},{"buffer":0,"byteLength":22152,"byteOffset":325128},{"buffer":0,"byteLength":22152,"byteOffset":347280},{"buffer":0,"byteLength":24888,"byteOffset":369432},{"buffer":0,"byteLength":47736,"byteOffset":394320},{"buffer":0,"byteLength":47736,"byteOffset":442056},{"buffer":0,"byteLength":47736,"byteOffset":489792},{"buffer":0,"byteLength":67632,"byteOffset":537528},{"buffer":0,"byteLength":35016,"byteOffset":605160},{"buffer":0,"byteLength":35016,"byteOffset":640176},{"buffer":0,"byteLength":35016,"byteOffset":675192},{"buffer":0,"byteLength":56544,"byteOffset":710208}],"buffers":[{"byteLength":766752,"uri":"data:application/octet-stream;base64,"}],"materials":[{"pbrMetallicRoughness":{"baseColorFactor":[1.0,1.0,1.0,1.0],"metallicFactor":0.5,"roughnessFactor":0.800000011920929}},{"pbrMetallicRoughness":{"baseColorFactor":[1.0,1.0,1.0,1.0],"metallicFactor":0.5,"roughnessFactor":0.800000011920929}},{"pbrMetallicRoughness":{"baseColorFactor":[1.0,1.0,1.0,1.0],"metallicFactor":0.5,"roughnessFactor":0.800000011920929}},{"pbrMetallicRoughness":{"baseColorFactor":[1.0,1.0,1.0,1.0],"metallicFactor":0.5,"roughnessFactor":0.800000011920929}},{"pbrMetallicRoughness":{"baseColorFactor":[1.0,1.0,1.0,1.0],"metallicFactor":0.5,"roughnessFactor":0.800000011920929}}],"meshes":[{"primitives":[{"attributes":{"COLOR_0":2,"NORMAL":1,"POSITION":0},"indices":3,"material":0,"mode":4}]},{"primitives":[{"attributes":{"COLOR_0":6,"NORMAL":5,"POSITION":4},"indices":7,"material":1,"mode":4}]},{"primitives":[{"attributes":{"COLOR_0":10,"NORMAL":9,"POSITION":8},"indices":11,"material":2,"mode":4}]},{"primitives":[{"attributes":{"COLOR_0":14,"NORMAL":13,"POSITION":12},"indices":15,"material":3,"mode":4}]},{"primitives":[{"attributes":{"COLOR_0":18,"NORMAL":17,"POSITION":16},"indices":19,"material":4,"mode":4}]}],"nodes":[{"children":[1,6],"extras":{"type":"","uuid":"346297aa673ff2e2"},"name":"Serter_2"},{"children":[2,4],"extras":{"type":"","uuid":"0a6f052fa8de290d"},"matrix":[-1.0,3.7339583842886303e-16,-1.2212453270876803e-15,0.0,3.733958384288783e-16,1.0,-1.2504135560673301e-14,0.0,1.2212453270876803e-15,-1.2504135560673301e-14,-1.0,0.0,0.800608445134685,3.2142340673684e-13,46.2417995518871,1.0],"name":"Serter_2.STEP"},{"children":[3],"extras":{"type":"","uuid":"9400fd55e933ac0a"},"matrix":[-1.0,8.45037050925926e-15,1.0384867025789701e-14,0.0,8.45037050925915e-15,1.0,-1.0619614963393288e-14,0.0,-1.0384867025789802e-14,-1.06196149633932e-14,-1.0,0.0,0.800608445135235,38.6062272914172,55.5932387208544,1.0],"name":"SertCaseLeg_v04.step.STEP"},{"extras":{"type":"","uuid":"eac7df78478b6db2"},"mesh":0,"name":""},{"children":[5],"extras":{"type":"","uuid":"d2a23e33c686a59c"},"matrix":[-1.0,8.450370509258561e-15,-3.3029134982600805e-15,0.0,8.450370509258596e-15,1.0,-1.0619614963393171e-14,0.0,3.3029134982599906e-15,-1.06196149633932e-14,-1.0,0.0,0.800608445135322,16.6219356242347,51.5932387208546,1.0],"name":"SerCaseHol_v04.step.STEP"},{"extras":{"type":"","uuid":"38b24be4f7a9f230"},"mesh":1,"name":""},{"children":[7,9,11],"extras":{"type":"","uuid":"4e22a3a3f26554ed"},"matrix":[-1.0,-9.943581260010082e-15,9.266559563913801e-15,0.0,9.266559563913781e-15,2.1003808829334525e-15,1.0,0.0,-9.943581260010093e-15,1.0,-2.1003808829333602e-15,0.0,-1.4587054646274103e-12,27.4125633525925,-9.35143916896769,1.0],"name":"Case()"},{"children":[8],"extras":{"type":"","uuid":"4eaca6f55b70e9da"},"name":""},{"extras":{"type":"","uuid":"3d748d20254e7a98"},"mesh":2,"name":""},{"children":[10],"extras":{"type":"","uuid":"13e4363e99283e16"},"name":""},{"extras":{"type":"","uuid":"db30586cb843ed8e"},"mesh":3,"name":""},{"children":[12],"extras":{"type":"","uuid":"b79abfceaa87d691"},"name":""},{"extras":{"type":"","uuid":"c6446920debb44c0"},"mesh":4,"name":""}],"scene":0,"scenes":[{"nodes":[0]}]}